HIERARCHY
ROOT Hips
{
	OFFSET -0.179506 -22.333345 2.821913
	CHANNELS 6 Xposition Yposition Zposition Zrotation Yrotation Xrotation 
	JOINT LeftUpLeg
	{
		OFFSET 6.951974 -9.140623 -0.681533
		CHANNELS 3 Zrotation Yrotation Xrotation
		JOINT LeftLeg
		{
			OFFSET 3.427654 -37.519855 -0.449580
			CHANNELS 3 Zrotation Yrotation Xrotation
			JOINT LeftFoot
			{
				OFFSET -1.359570 -39.796059 -4.369333
				CHANNELS 3 Zrotation Yrotation Xrotation
				JOINT LeftToe
				{
					OFFSET 2.635814 -5.579078 11.928840
					CHANNELS 3 Zrotation Yrotation Xrotation
					End Site
					{
						OFFSET 0.000000 0.000000 0.000000
					}
				}
			}
		}
	}
	JOINT RightUpLeg
	{
		OFFSET -6.767048 -9.052170 -0.431982
		CHANNELS 3 Zrotation Yrotation Xrotation
		JOINT RightLeg
		{
			OFFSET -3.829005 -38.256897 -0.885003
			CHANNELS 3 Zrotation Yrotation Xrotation
			JOINT RightFoot
			{
				OFFSET 1.577377 -39.841461 -4.231180
				CHANNELS 3 Zrotation Yrotation Xrotation
				JOINT RightToe
				{
					OFFSET -2.537174 -4.814398 12.334795
					CHANNELS 3 Zrotation Yrotation Xrotation
					End Site
					{
						OFFSET 0.000000 0.000000 0.000000
					}
				}
			}
		}
	}
	JOINT Spine
	{
		OFFSET -0.253288 10.896323 -2.669631
		CHANNELS 3 Zrotation Yrotation Xrotation
		JOINT Spine1
		{
			OFFSET 0.548704 13.518043 0.109247
			CHANNELS 3 Zrotation Yrotation Xrotation
			JOINT Spine2
			{
				OFFSET 0.145701 5.292222 2.542457
				CHANNELS 3 Zrotation Yrotation Xrotation
				JOINT Neck
				{
					OFFSET -0.277840 21.387037 -4.285703
					CHANNELS 3 Zrotation Yrotation Xrotation
					JOINT Head
					{
						OFFSET 0.515184 6.496960 5.134897
						CHANNELS 3 Zrotation Yrotation Xrotation
						End Site
						{
							OFFSET 0.000000 0.000000 0.000000
						}
					}
				}
				JOINT LeftShoulder
				{
					OFFSET 7.884473 12.174932 -3.408961
					CHANNELS 3 Zrotation Yrotation Xrotation
					JOINT LeftArm
					{
						OFFSET 9.097692 3.046888 -0.886815
						CHANNELS 3 Zrotation Yrotation Xrotation
						JOINT LeftForeArm
						{
							OFFSET 25.961220 -1.277207 -2.745643
							CHANNELS 3 Zrotation Yrotation Xrotation
							JOINT LeftHand
							{
								OFFSET 24.923361 0.898606 -0.117091
								CHANNELS 3 Zrotation Yrotation Xrotation
								End Site
								{
									OFFSET 0.000000 0.000000 0.000000
								}
							}
						}
					}
				}
				JOINT RightShoulder
				{
					OFFSET -8.175920 11.883285 -3.861528
					CHANNELS 3 Zrotation Yrotation Xrotation
					JOINT RightArm
					{
						OFFSET -9.601238 3.255117 -0.914307
						CHANNELS 3 Zrotation Yrotation Xrotation
						JOINT RightForeArm
						{
							OFFSET -25.374195 -1.332924 -2.140099
							CHANNELS 3 Zrotation Yrotation Xrotation
							JOINT RightHand
							{
								OFFSET -25.529810 0.777228 -0.555919
								CHANNELS 3 Zrotation Yrotation Xrotation
								End Site
								{
									OFFSET 0.000000 0.000000 0.000000
								}
							}
						}
					}
				}
			}
		}
	}
}
MOTION
Frames: 10
Frame Time: 0.033333
-11.850293 18.324409 93.470032 81.881795 -1.787640 85.381470 3.234552 -11.729455 -28.081274 -3.344601 -3.776751 32.583034 -7.476768 1.443289 -3.959588 nan nan nan 11.199463 2.898137 17.485524 -1.914408 23.936060 -1.029615 3.694683 12.993674 2.560635 nan nan nan -4.423296 13.909172 5.838780 2.784078 0.457792 5.912491 0.821662 5.079388 1.025111 17.386844 -1.396830 1.732016 16.333697 -14.674170 -2.218981 -16.272576 11.831137 2.212969 -68.101141 11.795173 9.416265 -3.044853 -20.686784 12.723164 -19.250190 -14.310143 -23.133197 18.211083 0.972754 1.376840 61.594796 18.334427 13.236296 -3.978393 36.537914 7.206493 11.191021 14.087957 -24.196137 
-11.416322 18.275190 93.443169 80.836292 -1.612069 85.503988 3.193063 -11.730675 -28.263203 -3.859253 -4.225353 30.958074 -8.254535 0.897026 -3.665287 nan nan nan 11.175634 2.982155 17.885301 -2.046589 24.322953 -1.219612 4.006516 13.537779 2.145873 nan nan nan -4.198821 14.002589 5.814861 2.729374 0.384096 5.836597 0.715132 5.165931 0.959586 17.362904 -1.119943 1.741216 16.382539 -14.917748 -2.286184 -16.330914 11.677371 2.135000 -67.917229 11.892178 9.707230 -2.956702 -20.976204 12.809904 -18.706665 -14.582336 -23.063692 18.197108 1.127635 1.359241 61.539627 18.056720 13.469529 -3.548459 36.532623 7.971156 10.482309 13.892317 -24.316899 
-10.970020 18.238953 93.387367 79.902386 -1.534503 85.567859 3.002361 -11.846888 -28.356647 -4.264376 -4.569207 29.267227 -8.953430 0.346695 -3.186197 nan nan nan 11.066622 3.027960 18.349142 -2.191054 24.647934 -1.461844 4.169582 14.003802 1.892560 nan nan nan -4.039014 14.075363 5.683308 2.652333 0.273438 6.086131 0.599344 5.262764 0.820858 17.258362 -0.961404 1.755054 16.514412 -15.165002 -2.390658 -16.346328 11.444417 1.964761 -67.845763 11.814025 9.815611 -2.787953 -21.011718 12.265668 -18.029005 -14.419565 -23.192374 18.265236 1.353422 1.456463 61.389268 17.870971 13.514099 -3.232591 36.560968 8.600438 9.985936 13.780108 -24.440176 
-10.502870 18.206022 93.307152 79.132757 -1.467105 85.595519 2.565922 -11.722653 -28.375913 -4.509125 -5.180759 27.679307 -9.780786 -0.314064 -2.495590 nan nan nan 10.886564 2.866835 18.841384 -2.297734 24.953465 -1.698490 4.190967 14.435173 1.739249 nan nan nan -3.828729 14.069609 5.562000 2.546467 0.142762 6.368126 0.494711 5.320029 0.721491 17.060072 -0.959631 1.760107 16.612041 -15.243013 -2.568425 -16.465956 11.338052 1.643018 -67.619554 11.756807 9.741034 -2.613745 -21.147134 11.757355 -17.683409 -14.187903 -23.035689 18.249839 1.507423 1.420329 61.280590 17.641235 13.524952 -2.768914 36.578763 9.274403 9.899393 13.649574 -24.263278 
-10.034702 18.174875 93.233002 78.337172 -1.427867 85.674254 2.077824 -11.439505 -28.391240 -4.732657 -5.773941 26.187425 -10.590073 -0.886567 -1.949861 nan nan nan 10.706034 2.780794 19.290670 -2.453087 25.243992 -1.914553 4.270217 14.856996 1.405736 nan nan nan -3.725336 14.081579 5.435655 2.432698 0.053451 6.583763 0.468980 5.358749 0.558627 16.855055 -1.047107 1.702281 16.749013 -15.356158 -2.598419 -16.541504 11.133966 1.340971 -67.476037 11.819278 9.539438 -2.410194 -21.266318 11.143990 -17.520658 -14.154512 -22.596193 18.147976 1.749742 1.348192 61.436624 17.270056 13.345730 -2.704284 36.438684 9.297984 10.656313 13.599058 -23.513366 
-9.552843 18.162338 93.160568 77.504378 -1.404444 85.814327 1.520843 -11.237433 -28.383864 -4.800617 -6.345942 24.747087 -11.571088 -0.897460 -1.688914 nan nan nan 10.428713 2.504969 19.628053 -2.609376 25.489862 -2.005239 4.494296 15.496273 1.050540 nan nan nan -3.509178 14.075101 5.281452 2.146218 0.032512 6.739438 0.590209 5.315770 0.385900 16.447321 -1.158471 2.233408 16.986370 -15.216696 -3.184666 -17.263483 10.523877 0.854849 -66.688221 12.483484 9.660230 -2.513611 -21.933347 9.503470 -15.993535 -13.674168 -22.031579 18.765035 2.350500 1.761208 58.106352 16.526665 12.290010 2.718698 38.287561 11.431339 7.387842 12.349025 -24.716123 
-9.020751 18.125443 93.048325 76.726546 -1.415853 85.990580 1.304394 -11.604288 -28.508435 -4.796298 -5.836060 23.389403 -11.963794 -1.211423 -1.083962 nan nan nan 10.244673 2.672283 20.096722 -2.773239 25.569734 -2.375773 4.409542 15.809055 0.942280 nan nan nan -3.410055 14.177572 4.888972 2.063750 -0.151804 7.055606 0.326770 5.453889 0.128860 16.303761 -1.352102 2.387499 17.191988 -15.291246 -3.054694 -17.012710 10.085133 1.009371 -67.027675 12.241623 9.218653 -1.459772 -21.816006 8.284069 -16.877595 -14.116598 -21.828345 18.447583 2.541161 1.829423 60.271285 16.334881 12.263674 -0.688759 37.072152 9.599571 11.336207 12.567701 -22.938019 
-8.507227 18.099865 92.911133 75.905750 -1.335608 86.154831 1.053309 -11.640008 -28.674145 -4.794734 -5.574521 22.307885 -12.696309 -1.275838 -0.622218 nan nan nan 10.074327 2.717615 20.391661 -2.804696 25.541045 -2.438334 4.220427 16.310339 0.721550 nan nan nan -2.928931 14.106040 4.688718 1.697954 -0.092406 7.227273 0.197393 5.438263 -0.070727 16.132648 -1.881780 2.878770 17.123926 -14.851346 -3.358979 -17.408837 9.375924 0.746453 -66.647563 12.697215 8.785419 -0.666988 -22.280999 6.886798 -17.210554 -14.214391 -21.385310 17.896734 3.071865 1.512676 60.011483 15.795130 11.708695 1.307680 36.463939 10.859612 12.897061 13.000087 -23.768788 
-7.947099 17.968494 92.748314 75.250694 -1.273508 86.237310 0.769784 -11.702878 -28.740356 -4.869926 -5.135516 21.571668 -12.590110 -1.600988 -0.423906 nan nan nan 10.012271 2.787636 20.986530 -2.920558 26.068138 -2.799165 3.745749 15.987326 0.373439 nan nan nan -2.874374 14.287383 4.288286 1.861252 -0.336589 7.680295 -0.026397 5.533156 -0.288497 15.739941 -2.089196 2.759805 17.281984 -15.000815 -3.166793 -16.901736 9.640542 0.939030 -66.828873 11.624850 8.991852 -0.520469 -21.715325 5.790396 -15.553875 -14.462029 -22.907229 17.700073 2.546940 1.511477 61.859401 15.969880 12.778391 -1.904888 35.529637 8.807211 13.456710 12.637327 -21.630678 
-7.388345 17.934132 92.622894 74.609362 -1.175493 86.363659 0.324860 -11.663760 -28.805966 -4.916470 -5.201643 21.035431 -12.754471 -1.368889 -0.468487 nan nan nan 9.870619 2.601133 21.344384 -3.004173 26.547464 -2.839884 3.832465 16.039501 0.087047 nan nan nan -2.589380 14.184357 3.892662 1.749605 -0.356712 7.942406 0.012994 5.531338 -0.271637 15.183723 -2.439654 3.396739 17.353819 -14.563701 -3.933505 -17.619235 9.674699 0.623252 -65.793547 11.410131 9.635715 -0.649073 -22.210154 4.186172 -12.769979 -12.841983 -22.721874 18.235430 2.585545 1.891676 58.087989 15.718510 12.871508 4.257970 37.116529 11.744920 8.198022 11.597462 -24.212618 
